<svg xmlns="http://www.w3.org/2000/svg" width="420" height="180" viewBox="0 0 420 180" role="img" aria-label="Top languages for ImalkaDevHub" font-family="ui-sans-serif,-apple-system,'Segoe UI',Helvetica,Arial,sans-serif"><rect x="0.5" y="0.5" width="419" height="179" rx="10" fill="#ffffff" stroke="#d0d7de"/><text x="24" y="36" font-size="16" font-weight="700" fill="#1f2328">Top Languages</text><clipPath id="r"><rect x="24" y="54" width="372" height="10" rx="5"/></clipPath><rect x="24" y="54" width="372" height="10" rx="5" fill="#e6eaef"/><g clip-path="url(#r)"><rect x="24.0" y="54" width="260.5" height="10" fill="#da5b0b"/><rect x="284.0" y="54" width="42.0" height="10" fill="#f1e05a"/><rect x="325.5" y="54" width="30.3" height="10" fill="#b07219"/><rect x="355.2" y="54" width="28.2" height="10" fill="#3178c6"/><rect x="383.0" y="54" width="11.0" height="10" fill="#e34c26"/><rect x="393.5" y="54" width="3.0" height="10" fill="#663399"/></g><circle cx="29" cy="92" r="5" fill="#da5b0b"/><text x="40" y="96" font-size="13" fill="#1f2328">Jupyter Notebook</text><text x="194" y="96" font-size="12" text-anchor="end" fill="#57606a">69.9%</text><circle cx="219" cy="92" r="5" fill="#f1e05a"/><text x="230" y="96" font-size="13" fill="#1f2328">JavaScript</text><text x="384" y="96" font-size="12" text-anchor="end" fill="#57606a">11.2%</text><circle cx="29" cy="118" r="5" fill="#b07219"/><text x="40" y="122" font-size="13" fill="#1f2328">Java</text><text x="194" y="122" font-size="12" text-anchor="end" fill="#57606a">8.0%</text><circle cx="219" cy="118" r="5" fill="#3178c6"/><text x="230" y="122" font-size="13" fill="#1f2328">TypeScript</text><text x="384" y="122" font-size="12" text-anchor="end" fill="#57606a">7.5%</text><circle cx="29" cy="144" r="5" fill="#e34c26"/><text x="40" y="148" font-size="13" fill="#1f2328">HTML</text><text x="194" y="148" font-size="12" text-anchor="end" fill="#57606a">2.8%</text><circle cx="219" cy="144" r="5" fill="#663399"/><text x="230" y="148" font-size="13" fill="#1f2328">CSS</text><text x="384" y="148" font-size="12" text-anchor="end" fill="#57606a">0.7%</text></svg>