<svg xmlns="http://www.w3.org/2000/svg" width="860" height="224" viewBox="0 0 860 224" role="img" aria-label="Most used languages for ImalkaDevHub" font-family="ui-sans-serif,-apple-system,'Segoe UI',Helvetica,Arial,sans-serif"><rect x="0.5" y="0.5" width="859" height="223" rx="10" fill="#ffffff" stroke="#d0d7de"/><text x="24" y="36" font-size="16" font-weight="700" fill="#1f2328">7 Languages</text><text x="836" y="36" font-size="13" text-anchor="end" fill="#57606a">Most used languages</text><clipPath id="lb"><rect x="24" y="62" width="812" height="12" rx="6"/></clipPath><rect x="24" y="62" width="812" height="12" rx="6" fill="#e6eaef"/><g clip-path="url(#lb)"><rect x="24.0" y="62" width="566.9" height="12" fill="#da5b0b"/><rect x="590.4" y="62" width="90.9" height="12" fill="#f1e05a"/><rect x="680.8" y="62" width="65.3" height="12" fill="#b07219"/><rect x="745.6" y="62" width="60.9" height="12" fill="#3178c6"/><rect x="806.0" y="62" width="23.3" height="12" fill="#e34c26"/><rect x="828.9" y="62" width="6.0" height="12" fill="#663399"/><rect x="834.4" y="62" width="2.1" height="12" fill="#3572a5"/></g><circle cx="29" cy="104" r="5" fill="#da5b0b"/><text x="42" y="108" font-size="14" fill="#1f2328">Jupyter Notebook</text><text x="324" y="108" font-size="12" text-anchor="end" fill="#57606a">6.91 MB</text><text x="404" y="108" font-size="13" font-weight="600" text-anchor="end" fill="#1f2328">69.75%</text><circle cx="29" cy="132" r="5" fill="#f1e05a"/><text x="42" y="136" font-size="14" fill="#1f2328">JavaScript</text><text x="324" y="136" font-size="12" text-anchor="end" fill="#57606a">1.10 MB</text><text x="404" y="136" font-size="13" font-weight="600" text-anchor="end" fill="#1f2328">11.13%</text><circle cx="29" cy="160" r="5" fill="#b07219"/><text x="42" y="164" font-size="14" fill="#1f2328">Java</text><text x="324" y="164" font-size="12" text-anchor="end" fill="#57606a">790 kB</text><text x="404" y="164" font-size="13" font-weight="600" text-anchor="end" fill="#1f2328">7.98%</text><circle cx="29" cy="188" r="5" fill="#3178c6"/><text x="42" y="192" font-size="14" fill="#1f2328">TypeScript</text><text x="324" y="192" font-size="12" text-anchor="end" fill="#57606a">737 kB</text><text x="404" y="192" font-size="13" font-weight="600" text-anchor="end" fill="#1f2328">7.44%</text><circle cx="445" cy="104" r="5" fill="#e34c26"/><text x="458" y="108" font-size="14" fill="#1f2328">HTML</text><text x="740" y="108" font-size="12" text-anchor="end" fill="#57606a">279 kB</text><text x="820" y="108" font-size="13" font-weight="600" text-anchor="end" fill="#1f2328">2.81%</text><circle cx="445" cy="132" r="5" fill="#663399"/><text x="458" y="136" font-size="14" fill="#1f2328">CSS</text><text x="740" y="136" font-size="12" text-anchor="end" fill="#57606a">67.3 kB</text><text x="820" y="136" font-size="13" font-weight="600" text-anchor="end" fill="#1f2328">0.68%</text><circle cx="445" cy="160" r="5" fill="#3572a5"/><text x="458" y="164" font-size="14" fill="#1f2328">Python</text><text x="740" y="164" font-size="12" text-anchor="end" fill="#57606a">19.6 kB</text><text x="820" y="164" font-size="13" font-weight="600" text-anchor="end" fill="#1f2328">0.20%</text></svg>