<svg xmlns="http://www.w3.org/2000/svg" width="624" height="420" viewBox="0 0 624 420" role="img" aria-label="Skill Radar" font-family="ui-sans-serif,-apple-system,'Segoe UI',Helvetica,Arial,sans-serif"><text x="312.0" y="30" text-anchor="middle" font-size="16" font-weight="700" fill="#1f2328">Skill Radar</text><g transform="translate(312.0,228)"><polygon points="0.0,-150.0 117.3,-93.5 146.2,33.4 65.1,135.1 -65.1,135.1 -146.2,33.4 -117.3,-93.5" fill="none" stroke="#d0d7de" opacity="1.00"/><polygon points="0.0,-112.5 88.0,-70.1 109.7,25.0 48.8,101.4 -48.8,101.4 -109.7,25.0 -88.0,-70.1" fill="none" stroke="#d0d7de" opacity="0.85"/><polygon points="0.0,-75.0 58.6,-46.8 73.1,16.7 32.5,67.6 -32.5,67.6 -73.1,16.7 -58.6,-46.8" fill="none" stroke="#d0d7de" opacity="0.70"/><polygon points="0.0,-37.5 29.3,-23.4 36.6,8.3 16.3,33.8 -16.3,33.8 -36.6,8.3 -29.3,-23.4" fill="none" stroke="#d0d7de" opacity="0.55"/><line x1="0" y1="0" x2="0.0" y2="-150.0" stroke="#e6eaef"/><line x1="0" y1="0" x2="117.3" y2="-93.5" stroke="#e6eaef"/><line x1="0" y1="0" x2="146.2" y2="33.4" stroke="#e6eaef"/><line x1="0" y1="0" x2="65.1" y2="135.1" stroke="#e6eaef"/><line x1="0" y1="0" x2="-65.1" y2="135.1" stroke="#e6eaef"/><line x1="0" y1="0" x2="-146.2" y2="33.4" stroke="#e6eaef"/><line x1="0" y1="0" x2="-117.3" y2="-93.5" stroke="#e6eaef"/><g><animateTransform attributeName="transform" type="scale" values="0.05;1" dur="1s" calcMode="spline" keyTimes="0;1" keySplines="0.22 1 0.36 1" fill="freeze"/><polygon points="0.0,-127.5 93.8,-74.8 102.4,23.4 42.3,87.8 -48.8,101.4 -95.1,21.7 -82.1,-65.5" fill="#0077b6" fill-opacity="0.22" stroke="#0077b6" stroke-width="2.5" stroke-linejoin="round"/><circle cx="0.0" cy="-127.5" r="4" fill="#023e8a" stroke="#0077b6" stroke-width="1.5"/><circle cx="93.8" cy="-74.8" r="4" fill="#023e8a" stroke="#0077b6" stroke-width="1.5"/><circle cx="102.4" cy="23.4" r="4" fill="#023e8a" stroke="#0077b6" stroke-width="1.5"/><circle cx="42.3" cy="87.8" r="4" fill="#023e8a" stroke="#0077b6" stroke-width="1.5"/><circle cx="-48.8" cy="101.4" r="4" fill="#023e8a" stroke="#0077b6" stroke-width="1.5"/><circle cx="-95.1" cy="21.7" r="4" fill="#023e8a" stroke="#0077b6" stroke-width="1.5"/><circle cx="-82.1" cy="-65.5" r="4" fill="#023e8a" stroke="#0077b6" stroke-width="1.5"/></g><text x="0.0" y="-172.0" text-anchor="middle" font-size="13" font-weight="600" fill="#1f2328">Full Stack Web</text><text x="131.3" y="-108.7" text-anchor="start" font-size="13" font-weight="600" fill="#1f2328">Backend / APIs</text><text x="163.8" y="41.4" text-anchor="start" font-size="13" font-weight="600" fill="#1f2328">Mobile (Flutter)</text><text x="72.9" y="167.4" text-anchor="start" font-size="13" font-weight="600" fill="#1f2328">AI &amp; ML</text><text x="-72.9" y="167.4" text-anchor="end" font-size="13" font-weight="600" fill="#1f2328">Databases</text><text x="-163.8" y="41.4" text-anchor="end" font-size="13" font-weight="600" fill="#1f2328">Cloud &amp; DevOps</text><text x="-131.3" y="-108.7" text-anchor="end" font-size="13" font-weight="600" fill="#1f2328">UI / Design</text></g></svg>